<svg width="220" height="32" viewBox="0 0 220 32" fill="none" xmlns="http://www.w3.org/2000/svg">
<path d="M205.973 5.31836C207.637 5.31836 209.13 5.42766 210.454 5.64627C211.79 5.86488 213.065 6.25352 214.28 6.81219C215.507 7.37086 216.527 8.09956 217.34 8.99829C218.154 9.89702 218.798 11.0629 219.271 12.496C219.757 13.9292 220 15.593 220 17.4876C220 18.8722 219.836 20.1656 219.508 21.368C219.18 22.5582 218.731 23.5844 218.16 24.4467C217.589 25.309 216.934 26.0802 216.193 26.7603C215.464 27.4283 214.669 27.9748 213.806 28.3999C212.944 28.825 212.082 29.1529 211.219 29.3837C210.357 29.6144 209.495 29.7541 208.632 29.8027H196.135V5.60984C196.172 5.60984 196.238 5.61591 196.336 5.62806C196.433 5.6402 196.5 5.64627 196.536 5.64627C197.058 5.64627 197.848 5.59162 198.904 5.48232C199.973 5.37301 200.775 5.31836 201.309 5.31836H205.973ZM206.191 24.1188C206.811 24.1188 207.357 24.0216 207.831 23.8273C208.305 23.6209 208.681 23.3294 208.96 22.9529C209.252 22.5764 209.489 22.1817 209.671 21.7687C209.865 21.3558 210.005 20.87 210.09 20.3113C210.175 19.7527 210.23 19.2669 210.254 18.8539C210.29 18.4289 210.308 17.9491 210.308 17.4148V16.1031C210.296 16.0181 210.26 15.6052 210.199 14.8643C210.138 14.1235 210.005 13.4919 209.798 12.9697C209.604 12.5932 209.385 12.2714 209.143 12.0042C208.912 11.7248 208.681 11.5123 208.45 11.3666C208.22 11.2087 207.946 11.0933 207.63 11.0204C207.327 10.9354 207.048 10.8808 206.792 10.8565C206.537 10.8322 206.228 10.82 205.863 10.82V11.2208H205.317V24.1188H206.191Z" fill="#181818"/>
<path d="M176.432 7.06712C176.432 6.33842 176.462 5.91335 176.523 5.7919C176.632 5.62187 176.809 5.53685 177.051 5.53685H177.489C177.683 5.53685 177.817 5.549 177.889 5.57329H178.837C180.063 5.57329 181.916 5.54293 184.393 5.4822C186.883 5.42148 188.747 5.39111 189.986 5.39111H194.832C195.148 5.42755 195.305 5.58543 195.305 5.86477V11.9494C195.293 12.0223 195.269 12.0891 195.233 12.1498C195.208 12.1984 195.184 12.2348 195.16 12.2591C195.147 12.2713 195.093 12.3138 194.996 12.3866C194.899 12.4474 194.832 12.4959 194.795 12.5324H186.342V14.7913H187.144C187.848 14.7913 188.923 14.767 190.368 14.7185C191.814 14.6699 192.925 14.6456 193.702 14.6456C194.042 14.6456 194.273 14.7124 194.395 14.846C194.516 14.9796 194.577 15.1678 194.577 15.4107C194.577 15.4715 194.565 15.5747 194.54 15.7204C194.516 15.8662 194.504 15.9694 194.504 16.0301V16.7224C194.504 16.771 194.51 16.8742 194.522 17.0321C194.534 17.1778 194.54 17.3053 194.54 17.4147V17.9247C194.54 18.1919 194.552 18.4591 194.577 18.7263C194.601 18.9935 194.613 19.2243 194.613 19.4186V19.8922C194.552 20.038 194.504 20.1351 194.467 20.1837C194.431 20.2323 194.37 20.2566 194.285 20.2566V20.2201C193.836 20.2201 193.059 20.2505 191.953 20.3112C190.86 20.372 189.986 20.4023 189.33 20.4023H186.415V22.7342C186.512 22.7342 186.658 22.7402 186.852 22.7524C187.047 22.7645 187.193 22.7706 187.29 22.7706C187.836 22.7706 188.644 22.7524 189.713 22.7159C190.781 22.6795 191.553 22.6613 192.026 22.6613H194.358C194.99 22.6613 195.39 22.7342 195.56 22.8799C195.621 22.9528 195.67 23.0256 195.706 23.0985V28.9281C195.706 29.1832 195.658 29.3775 195.56 29.5111C195.463 29.6447 195.281 29.7175 195.014 29.7297H176.979L176.432 29.256V7.06712Z" fill="#181818"/>
<path d="M155.271 12.1682V5.60986H176.476C176.671 5.6463 176.792 5.72524 176.841 5.84669C176.889 5.95599 176.913 6.11995 176.913 6.33856V12.1682C176.889 12.4596 176.719 12.6054 176.403 12.6054H171.23V29.3655C171.23 29.3776 171.224 29.408 171.211 29.4566C171.199 29.5051 171.193 29.5355 171.193 29.5476C171.193 29.5598 171.187 29.5841 171.175 29.6205C171.163 29.6569 171.151 29.6812 171.138 29.6934C171.126 29.7055 171.114 29.7298 171.102 29.7662C171.09 29.7905 171.072 29.8088 171.047 29.8209C171.035 29.8209 171.011 29.833 170.975 29.8573C170.95 29.8695 170.92 29.8816 170.883 29.8938C170.859 29.9059 170.823 29.9181 170.774 29.9302C170.738 29.9302 170.695 29.9363 170.647 29.9484H169.481C167.926 29.9484 167.149 29.8998 167.149 29.8027C167.052 29.8027 166.906 29.8088 166.712 29.8209C166.517 29.833 166.372 29.8391 166.274 29.8391H164.817C164.538 29.8391 164.137 29.8452 163.615 29.8573C163.105 29.8695 162.704 29.8756 162.412 29.8756H161.392L160.663 29.3655V25.4305C160.676 24.7261 160.724 23.2201 160.809 20.9126C160.906 18.605 160.955 16.7833 160.955 15.4473V14.9737C160.955 14.8765 160.961 14.7247 160.973 14.5182C160.985 14.3117 160.991 14.1599 160.991 14.0628C160.991 13.9535 160.985 13.7349 160.973 13.4069C160.961 13.0669 160.955 12.8483 160.955 12.7511H156.401C156.133 12.7511 155.878 12.7086 155.635 12.6236C155.393 12.5264 155.271 12.3746 155.271 12.1682Z" fill="#181818"/>
<path d="M127.957 31.2413C127.665 31.2413 127.44 31.2081 127.28 31.1418C127.134 31.0887 127.035 31.0224 126.982 30.9428C126.942 30.8632 126.869 30.7106 126.763 30.4851V2.18908C126.763 1.89723 126.763 1.68498 126.763 1.55232C126.776 1.41966 126.803 1.2671 126.843 1.09465C126.882 0.908926 126.942 0.7829 127.022 0.716571C127.115 0.636976 127.241 0.570647 127.4 0.517583C127.559 0.46452 127.758 0.437988 127.997 0.437988H136.155C138.065 0.437988 139.021 0.676774 139.021 1.15434V1.19414C138.968 6.12903 138.941 9.80367 138.941 12.2181L144.533 0.57728L148.652 0.597179C154.276 0.597179 157.089 0.729837 157.089 0.995154C157.089 1.04822 157.062 1.07475 157.009 1.07475C154.436 5.71779 151.822 10.3343 149.169 14.9243V15.4815L149.985 15.9988L158.303 30.306C158.303 30.5183 158.15 30.7504 157.845 31.0025H145.07L139.379 19.899C139.299 20.6286 139.24 21.6899 139.2 23.0828C139.16 24.4757 139.127 25.391 139.1 25.8288V30.5249C139.007 31.0025 138.211 31.2413 136.712 31.2413H127.957Z" fill="#181818"/>
<path d="M126.254 19.9386C126.029 21.9284 125.505 23.6928 124.682 25.2316C123.86 26.7572 122.805 28.0042 121.518 28.9726C120.231 29.9277 118.766 30.6507 117.121 31.1416C115.489 31.6324 113.705 31.8778 111.768 31.8778C109.964 31.8778 108.319 31.6788 106.833 31.2809C105.347 30.8961 104.094 30.3788 103.072 29.7288C102.051 29.0787 101.148 28.2894 100.366 27.3608C99.5831 26.4189 98.9596 25.4572 98.4953 24.4755C98.031 23.4805 97.6529 22.3994 97.3611 21.232C97.0825 20.0513 96.8902 18.9569 96.784 17.9487C96.6912 16.9272 96.6447 15.8659 96.6447 14.7649V13.0138C96.7774 11.077 97.2284 9.33915 97.9979 7.80032C98.7673 6.24821 99.7025 5.00122 100.804 4.05935C101.905 3.10421 103.165 2.31489 104.584 1.69139C106.004 1.05463 107.383 0.616862 108.723 0.378076C110.063 0.126025 111.396 0 112.723 0C114.859 0 116.742 0.258684 118.374 0.776052C120.019 1.28015 121.359 1.99651 122.394 2.92512C123.428 3.85373 124.238 4.92163 124.821 6.12882C125.405 7.32275 125.777 8.6626 125.936 10.1484V12.0587C125.936 12.4832 124.476 12.6954 121.558 12.6954C120.868 12.6954 119.906 12.6821 118.673 12.6556C117.452 12.6291 116.65 12.6158 116.265 12.6158C116.199 12.6158 116.099 12.6224 115.966 12.6357C115.834 12.649 115.734 12.6556 115.668 12.6556C115.323 12.6556 115.058 12.5163 114.872 12.2377C114.7 11.9459 114.58 11.5943 114.514 11.1831C114.461 10.7719 114.388 10.3606 114.295 9.94938C114.215 9.53814 114.036 9.19323 113.758 8.91465C113.492 8.6228 113.121 8.47687 112.643 8.47687C112.166 8.47687 111.748 8.55647 111.39 8.71566C111.032 8.87485 110.746 9.1269 110.534 9.47181C110.322 9.80346 110.143 10.1417 109.997 10.4866C109.864 10.8316 109.765 11.2826 109.698 11.8398C109.645 12.3837 109.605 12.848 109.579 13.2327C109.566 13.6041 109.552 14.1082 109.539 14.745C109.526 15.3685 109.513 15.8262 109.499 16.118C109.499 16.2772 109.486 16.569 109.46 16.9935C109.433 17.4181 109.42 17.763 109.42 18.0283C109.42 21.3315 110.295 23.0295 112.046 23.1224C112.524 23.1224 112.915 22.9499 113.22 22.605C113.526 22.2601 113.731 21.8754 113.837 21.4509C113.957 21.0264 114.089 20.582 114.235 20.1177C114.381 19.6401 114.54 19.3151 114.713 19.1426H125.538C125.976 19.1824 126.214 19.4477 126.254 19.9386Z" fill="#181818"/>
<path d="M52.4851 1.39313C52.4851 1.2472 52.5647 1.12118 52.7239 1.01505C52.8963 0.89566 53.1417 0.809432 53.4601 0.756369C53.7785 0.690039 54.0969 0.636976 54.4153 0.597179C54.7336 0.557381 55.1117 0.530849 55.5495 0.517583C56.0005 0.504318 56.372 0.497685 56.6638 0.497685C56.9557 0.497685 57.2873 0.504318 57.6588 0.517583C58.0435 0.517583 58.269 0.517583 58.3353 0.517583H60.564C61.0017 0.517583 61.612 0.504318 62.3947 0.477786C63.1906 0.451254 63.7743 0.437988 64.1458 0.437988C70.4736 0.437988 74.9972 1.52579 77.7167 3.70139L78.4331 4.33815C78.6586 4.5504 78.9106 4.82898 79.1892 5.17389C79.4678 5.50554 79.8061 6.01628 80.2041 6.7061C80.6153 7.38266 80.9801 8.11891 81.2985 8.91486C81.6169 9.71081 81.8888 10.6925 82.1143 11.8599C82.3399 13.0273 82.4526 14.2345 82.4526 15.4815C82.4526 17.4183 82.1873 19.2291 81.6567 20.9138C81.126 22.5986 80.3964 24.0578 79.4678 25.2915C78.5525 26.5253 77.4713 27.5932 76.2243 28.4952C74.9906 29.3841 73.6507 30.054 72.2048 30.505C70.7588 30.9428 69.2664 31.1617 67.7275 31.1617H67.0908C66.5203 31.1617 65.6713 31.1484 64.5437 31.1219C63.4161 31.0954 62.5671 31.0821 61.9967 31.0821C58.667 31.0821 55.6556 31.1351 52.9626 31.2413C52.6443 30.6045 52.4851 30.0208 52.4851 29.4902V1.39313ZM64.1856 24.2369C64.9815 24.2369 65.6979 24.1507 66.3346 23.9782C66.9714 23.7925 67.5086 23.5537 67.9464 23.2619C68.3842 22.97 68.7689 22.5986 69.1005 22.1475C69.4322 21.6965 69.6909 21.2322 69.8766 20.7546C70.0756 20.2771 70.2281 19.7332 70.3343 19.1229C70.4537 18.4994 70.5333 17.9157 70.5731 17.3718C70.6128 16.8147 70.6328 16.1978 70.6328 15.5213V14.2875C70.6328 11.8466 70.1485 10.0491 69.1801 8.89496C68.2117 7.72757 66.5203 7.11071 64.106 7.04438C64.0396 7.1903 63.9335 7.38929 63.7876 7.64134C63.6416 7.89339 63.5355 8.09238 63.4692 8.2383V9.19344C63.4692 9.39243 63.4626 9.9098 63.4493 10.7455C63.2768 19.6337 63.5223 24.1308 64.1856 24.2369Z" fill="#181818"/>
<path d="M37.4118 5.31836C39.0756 5.31836 40.5695 5.42766 41.8933 5.64627C43.2292 5.86488 44.5045 6.25352 45.719 6.81219C46.9456 7.37086 47.9658 8.09956 48.7795 8.99829C49.5932 9.89702 50.2369 11.0629 50.7105 12.496C51.1963 13.9292 51.4392 15.593 51.4392 17.4876C51.4392 18.8722 51.2753 20.1656 50.9474 21.368C50.6195 22.5582 50.1701 23.5844 49.5993 24.4467C49.0285 25.309 48.3726 26.0802 47.6318 26.7603C46.9031 27.4283 46.1076 27.9748 45.2453 28.3999C44.383 28.825 43.5207 29.1529 42.6584 29.3837C41.7961 29.6144 40.9338 29.7541 40.0715 29.8027H27.5743V5.60984C27.6108 5.60984 27.6776 5.61591 27.7747 5.62806C27.8719 5.6402 27.9387 5.64627 27.9751 5.64627C28.4974 5.64627 29.2868 5.59162 30.3434 5.48232C31.4122 5.37301 32.2137 5.31836 32.7481 5.31836H37.4118ZM37.6304 24.1188C38.2498 24.1188 38.7963 24.0216 39.27 23.8273C39.7436 23.6209 40.1201 23.3294 40.3995 22.9529C40.6909 22.5764 40.9278 22.1817 41.1099 21.7687C41.3043 21.3558 41.4439 20.87 41.5289 20.3113C41.6139 19.7527 41.6686 19.2669 41.6929 18.8539C41.7293 18.4289 41.7475 17.9491 41.7475 17.4148V16.1031C41.7354 16.0181 41.699 15.6052 41.6382 14.8643C41.5775 14.1235 41.4439 13.4919 41.2375 12.9697C41.0431 12.5932 40.8245 12.2714 40.5816 12.0042C40.3509 11.7248 40.1201 11.5123 39.8894 11.3666C39.6586 11.2087 39.3853 11.0933 39.0696 11.0204C38.7659 10.9354 38.4866 10.8808 38.2316 10.8565C37.9765 10.8322 37.6668 10.82 37.3025 10.82V11.2208H36.756V24.1188H37.6304Z" fill="#181818"/>
<path d="M10.639 26.0863C10.554 26.3656 10.469 26.736 10.384 27.1976C10.3111 27.6469 10.2382 28.0052 10.1654 28.2724C10.1046 28.5274 9.99533 28.8007 9.83744 29.0922C9.67956 29.3715 9.43666 29.578 9.10874 29.7116C8.79297 29.8452 8.38004 29.912 7.86995 29.912H0V29.2926C0.643685 27.3615 1.57885 24.3981 2.80549 20.4024C4.04428 16.4067 5.00374 13.3826 5.68386 11.3301V11.3666C6.09679 10.1885 6.70403 8.34246 7.5056 5.82845C7.51775 5.80416 7.53597 5.7738 7.56026 5.73736C7.66956 5.55519 7.77279 5.41552 7.86995 5.31836L17.7074 5.39123C19.3834 5.39123 20.3064 5.53697 20.4765 5.82845V6.3021C20.5007 6.41141 20.6343 6.69074 20.8772 7.14011C22.0553 10.7472 22.9176 13.3705 23.4641 15.0101V15.2287C23.5127 15.5809 23.622 15.9817 23.792 16.431C23.9621 16.8804 24.1625 17.3662 24.3932 17.8884C24.6361 18.3985 24.8061 18.7993 24.9033 19.0908L25.632 21.7141C26.0571 23.1229 26.6825 25.0054 27.5084 27.3615V27.3251V27.6894C27.5448 27.8595 27.6359 28.0902 27.7817 28.3817C27.9274 28.6732 28.0185 28.8796 28.0549 29.0011C28.0549 29.3412 27.9821 29.5598 27.8363 29.6569C27.7027 29.7541 27.4355 29.8027 27.0347 29.8027H18.5818C18.3754 29.7784 18.2418 29.7602 18.1811 29.748C18.1203 29.7359 18.0232 29.7116 17.8896 29.6751C17.7681 29.6387 17.677 29.5901 17.6163 29.5294C17.5677 29.4687 17.5374 29.3897 17.5252 29.2926L16.833 26.5235C16.7844 26.2928 16.7358 26.1652 16.6872 26.1409C16.6386 26.1045 16.4929 26.0863 16.25 26.0863H10.639ZM11.5135 19.6009V19.6737V19.6009ZM15.5213 17.4148C15.4484 17.0747 15.3391 16.5282 15.1934 15.7752C15.0598 15.0101 14.9262 14.3482 14.7926 13.7895C14.659 13.2187 14.5133 12.6904 14.3554 12.2046V11.3301C14.2582 11.0751 14.0882 10.8929 13.8453 10.7836V10.82C13.5538 10.8808 13.2623 11.6945 12.9708 13.2612V14.1356C12.9466 14.2206 12.8919 14.2996 12.8069 14.3725C12.7219 14.4453 12.6794 14.4878 12.6794 14.5C12.2786 16.2731 11.9507 17.7063 11.6956 18.7993C11.6956 18.9208 11.6653 19.1333 11.6045 19.4369C11.5438 19.7405 11.5135 19.9166 11.5135 19.9652H16.0314C16.0314 19.6494 15.9221 19.0786 15.7035 18.2528V17.852C15.6913 17.8156 15.6549 17.7488 15.5942 17.6516C15.5456 17.5423 15.5213 17.4634 15.5213 17.4148Z" fill="#181818"/>
<path fill-rule="evenodd" clip-rule="evenodd" d="M90.1863 0.739691C89.4525 0.731837 88.7599 0.721113 88.1083 0.70752C84.876 1.33563 83.5101 5.1282 83.224 7.88979C83.103 12.8685 83.0425 17.7867 83.0425 22.6444C82.9098 24.4353 82.817 27.261 82.7639 31.1213H95.6185V8.97455H95.6159C95.6159 6.28649 93.8487 1.55688 90.1863 0.739691Z" fill="#181818"/>
</svg>
