<svg width="448" height="324" viewBox="0 0 448 324" fill="none" xmlns="http://www.w3.org/2000/svg">
<path d="M-79.0278 67.242C-79.0278 67.242 -162.216 -12.8331 -280.255 128.359C-347.762 151.105 -353.37 201.609 -352.983 227.876C-352.135 283.608 -246.222 330.741 -100.532 279.137C-100.532 279.137 162.389 359.241 205.462 297.835C205.462 297.835 366.07 337.138 378.928 285.657C386.339 255.972 350.723 236.947 350.723 236.947C350.723 236.947 435.449 256.269 444.389 192.96C453.328 129.651 362.308 94.6893 297.3 104.144C297.3 104.144 154.538 -14.3809 3.11106 5.17974C-79.9066 15.8919 -79.0278 67.242 -79.0278 67.242Z" fill="white" stroke="#161616" stroke-width="6" stroke-linecap="round" stroke-linejoin="round"/>
<path d="M28.0625 23.6059C-32.3581 20.4376 -60.5962 59.3408 -62.9599 79.9215Z" fill="white"/>
<path d="M28.0625 23.6059C-32.3581 20.4376 -60.5962 59.3408 -62.9599 79.9215" stroke="#161616" stroke-width="6" stroke-linecap="round" stroke-linejoin="round"/>
<path d="M210.148 72.9137C169.763 49.7671 112.277 24.8193 50.6843 23.606Z" fill="white"/>
<path d="M210.148 72.9137C169.763 49.7671 112.277 24.8193 50.6843 23.606" stroke="#161616" stroke-width="6" stroke-linecap="round" stroke-linejoin="round"/>
<path d="M297.309 104.132C297.309 104.132 250.317 113.672 233.086 138.514Z" fill="white"/>
<path d="M297.309 104.132C297.309 104.132 250.317 113.672 233.086 138.514" stroke="#161616" stroke-width="6" stroke-linecap="round" stroke-linejoin="round"/>
<path d="M205.477 297.823L178.707 289.533" stroke="#161616" stroke-width="6" stroke-linecap="round" stroke-linejoin="round"/>
</svg>
