<svg width="754" height="440" viewBox="0 0 754 440" fill="none" xmlns="http://www.w3.org/2000/svg">
<path d="M370.843 125.653C370.843 125.653 175.694 20.8361 95.4863 174.103C9.64779 205.143 2.51482 274.068 3.02322 309.915C4.10212 385.975 138.767 450.301 324.031 379.872C324.031 379.872 658.346 489.193 713.114 405.38C713.114 405.38 917.344 459.014 933.687 388.757C943.11 348.242 897.823 322.279 897.823 322.279C897.823 322.279 1005.55 348.643 1016.92 262.248C1028.29 175.853 912.552 128.141 829.884 141.038C829.884 141.038 648.353 -20.7244 455.808 5.97572C350.239 20.6106 370.843 125.653 370.843 125.653Z" fill="white" stroke="#161616" stroke-width="6" stroke-linecap="round" stroke-linejoin="round"/>
<path d="M464.087 34.3811C417.299 41.0449 405.058 73.1424 402.535 96.7033Z" fill="white"/>
<path d="M464.087 34.3811C417.299 41.0449 405.058 73.1424 402.535 96.7033" stroke="#161616" stroke-width="6" stroke-linecap="round" stroke-linejoin="round"/>
<path d="M677.253 81.5718C634.175 55.0806 566.146 33.6221 500.461 32.241Z" fill="white"/>
<path d="M677.253 81.5718C634.175 55.0806 566.146 33.6221 500.461 32.241" stroke="#161616" stroke-width="6" stroke-linecap="round" stroke-linejoin="round"/>
<path d="M324.032 379.872L273.27 364.106Z" fill="white"/>
<path d="M324.032 379.872L273.27 364.106" stroke="#161616" stroke-width="6" stroke-linecap="round" stroke-linejoin="round"/>
<path d="M829.885 141.038C829.885 141.038 770.119 154.058 748.223 187.959Z" fill="white"/>
<path d="M829.885 141.038C829.885 141.038 770.119 154.058 748.223 187.959" stroke="#161616" stroke-width="6" stroke-linecap="round" stroke-linejoin="round"/>
<path d="M370.84 125.653C370.84 125.653 375.341 161.927 397.152 174.103Z" fill="white"/>
<path d="M370.84 125.653C370.84 125.653 375.341 161.927 397.152 174.103" stroke="#161616" stroke-width="6" stroke-linecap="round" stroke-linejoin="round"/>
<path d="M713.118 405.38L679.082 394.065" stroke="#161616" stroke-width="6" stroke-linecap="round" stroke-linejoin="round"/>
</svg>
